# File created by Blade
# Date/Time:  Tue Sep 23 19:18:47 2014
# Frame Rate: 120.000 fps
#------------------------------------------------------
:FULLY-SPECIFIED
:DEGREES
1612
root 1.273883 34.869213 1.357786 120.467255 -7.836969 -42.636193
Spine -72.601892 -1.874632 27.343241
Head -15.519079 28.313831 41.376882
LeftShoulder -23.334676 32.354957 35.148606
LeftArm 92.857643 -66.707127 -106.319778
LeftForeArm 11.091918 -0.000000 95.287741
LeftHand -63.235917 -0.000000 8.072428
LeftHandThumb1 -26.253704 0.000000 33.147579
RightShoulder -43.331294 -38.968855 3.459419
RightArm 56.854290 67.275590 116.098255
RightForeArm 78.410054 -0.000000 16.806788
RightHand 19.108372 -0.000000 14.060496
RightHandThumb1 -24.326973 -0.000000 -32.862282
LeftUpLeg -101.796241 41.326586 -4.811289
LeftLeg -7.715825 -0.000000 0.000000
LeftFoot -0.109960 -4.728628 1.667974
LeftToeBase 2.032294 -0.000000 -0.000000
RightUpLeg -2.908347 -18.011709 -38.205684
RightLeg 79.828457 -0.000000 -0.000000
RightFoot 33.893940 1.306051 -3.437440
RightToeBase 28.403386 -0.000000 -0.000000
1613
root 1.269568 34.873758 1.378360 120.543121 -7.985444 -42.885812
Spine -72.542473 -1.778469 27.374415
Head -15.341637 28.643779 41.451419
LeftShoulder -23.419902 32.406349 35.135116
LeftArm 92.458654 -67.012747 -106.243960
LeftForeArm 10.929322 -0.000000 95.292650
LeftHand -63.166929 -0.000000 7.993625
LeftHandThumb1 -26.253704 0.000000 33.147579
RightShoulder -43.497094 -38.874360 3.652103
RightArm 56.761594 67.164520 115.990066
RightForeArm 78.798124 -0.000000 16.758984
RightHand 18.937643 -0.000000 14.426131
RightHandThumb1 -24.326973 -0.000000 -32.862282
LeftUpLeg -101.560243 41.515717 -4.791686
LeftLeg -7.798431 -0.000000 0.000000
LeftFoot 0.068980 -4.473253 2.258167
LeftToeBase 1.082498 -0.000000 -0.000000
RightUpLeg -3.054038 -18.456418 -38.318770
RightLeg 80.026686 -0.000000 -0.000000
RightFoot 34.018517 1.476354 -3.442040
RightToeBase 28.187026 -0.000000 -0.000000
1614
root 1.264743 34.877936 1.395484 120.598539 -8.145954 -43.113626
Spine -72.493025 -1.718546 27.405161
Head -15.077674 28.925668 41.573593
LeftShoulder -23.506370 32.502725 35.079887
LeftArm 92.124956 -67.340862 -106.148588
LeftForeArm 10.740357 0.000000 95.294068
LeftHand -63.114601 0.000000 7.905087
LeftHandThumb1 -26.253704 0.000000 33.147579
RightShoulder -43.631600 -38.835944 3.820646
RightArm 56.923674 67.083346 116.197214
RightForeArm 79.052170 0.000000 16.751821
RightHand 18.938006 -0.000000 14.740155
RightHandThumb1 -24.326973 -0.000000 -32.862282
LeftUpLeg -101.300522 41.705397 -4.742659
LeftLeg -7.847787 -0.000000 0.000000
LeftFoot 0.093689 -4.264430 2.426030
LeftToeBase 0.771981 -0.000000 -0.000000
RightUpLeg -3.148697 -18.866898 -38.443080
RightLeg 80.226791 -0.000000 -0.000000
RightFoot 34.104593 1.620583 -3.305888
RightToeBase 28.033092 -0.000000 -0.000000
1615
root 1.261844 34.884226 1.412876 120.731752 -8.338946 -43.413308
Spine -72.480227 -1.596993 27.339096
Head -14.846533 29.167136 41.716583
LeftShoulder -23.595580 32.597533 35.043335
LeftArm 91.727310 -67.628106 -105.967173
LeftForeArm 10.535433 -0.000000 95.277060
LeftHand -63.014610 -0.000000 8.001432
LeftHandThumb1 -26.253704 0.000000 33.147579
RightShoulder -43.835977 -38.811543 4.067491
RightArm 56.881936 66.907694 116.090732
RightForeArm 79.497737 -0.000000 16.663299
RightHand 19.037399 -0.000000 15.037561
RightHandThumb1 -24.326973 -0.000000 -32.862282
LeftUpLeg -101.097638 41.953283 -4.762966
LeftLeg -7.878990 -0.000000 0.000000
LeftFoot 0.064240 -4.056492 2.505276
LeftToeBase 0.637132 -0.000000 -0.000000
RightUpLeg -3.335242 -19.251443 -38.608991
RightLeg 80.428775 -0.000000 -0.000000
RightFoot 34.223883 1.807738 -3.174561
RightToeBase 27.881567 -0.000000 -0.000000
1616
root 1.268363 34.890360 1.429452 120.942222 -8.523021 -43.644208
Spine -72.551585 -1.462123 27.297060
Head -14.636343 29.392948 41.809481
LeftShoulder -23.638330 32.617382 35.075448
LeftArm 91.145751 -67.891905 -105.650631
LeftForeArm 10.357866 0.000000 95.246041
LeftHand -62.896942 -0.000000 8.136266
LeftHandThumb1 -26.253704 0.000000 33.147579
RightShoulder -43.982949 -38.791418 4.230699
RightArm 57.013211 66.835556 116.272058
RightForeArm 79.684935 -0.000000 16.688542
RightHand 18.927065 0.000000 15.216948
RightHandThumb1 -24.326973 -0.000000 -32.862282
LeftUpLeg -100.990509 42.103393 -4.753680
LeftLeg -7.902240 -0.000000 0.000000
LeftFoot 0.115618 -3.735221 2.741536
LeftToeBase 0.290973 -0.000000 -0.000000
RightUpLeg -3.556645 -19.696742 -38.736393
RightLeg 80.600561 -0.000000 -0.000000
RightFoot 34.373128 2.010100 -2.987606
RightToeBase 27.722402 -0.000000 -0.000000
1617
root 1.270385 34.897768 1.447506 121.110763 -8.732266 -43.879687
Spine -72.608126 -1.363062 27.213904
Head -14.383407 29.587224 41.959410
LeftShoulder -23.698849 32.670192 35.050332
LeftArm 90.859715 -68.083758 -105.548168
LeftForeArm 10.353560 0.000000 95.208203
LeftHand -62.867171 0.000000 8.085745
LeftHandThumb1 -26.253704 0.000000 33.147579
RightShoulder -44.088439 -38.763550 4.377945
RightArm 56.993540 66.802093 116.282750
RightForeArm 79.961837 -0.000000 16.703964
RightHand 18.861802 -0.000000 15.392572
RightHandThumb1 -24.326973 -0.000000 -32.862282
LeftUpLeg -100.924999 42.244026 -4.896504
LeftLeg -7.908467 -0.000000 0.000000
LeftFoot 0.082869 -3.638536 2.741856
LeftToeBase 0.247459 -0.000000 -0.000000
RightUpLeg -3.710719 -20.080194 -38.892025
RightLeg 80.726909 -0.000000 -0.000000
RightFoot 34.532150 2.287038 -2.800198
RightToeBase 27.479330 -0.000000 -0.000000
1618
root 1.272582 34.903246 1.463823 121.292390 -8.915300 -44.080915
Spine -72.674901 -1.258338 27.142982
Head -14.193653 29.754914 42.054807
LeftShoulder -23.804332 32.747325 34.972234
LeftArm 90.835164 -68.185989 -105.647317
LeftForeArm 10.377117 -0.000000 95.141412
LeftHand -62.851152 0.000000 7.978847
LeftHandThumb1 -26.253704 0.000000 33.147579
RightShoulder -44.162219 -38.709437 4.493676
RightArm 56.513681 66.737262 115.748916
RightForeArm 80.466965 -0.000000 16.640950
RightHand 18.804711 0.000000 15.617675
RightHandThumb1 -24.326973 -0.000000 -32.862282
LeftUpLeg -100.838398 42.376230 -4.927602
LeftLeg -7.888476 -0.000000 0.000000
LeftFoot 0.014026 -3.464835 2.820930
LeftToeBase 0.260428 -0.000000 -0.000000
RightUpLeg -3.844282 -20.444076 -38.997709
RightLeg 80.813163 -0.000000 -0.000000
RightFoot 34.603723 2.516396 -2.561059
RightToeBase 27.504411 -0.000000 -0.000000
1619
root 1.273452 34.910270 1.477962 121.432147 -9.097937 -44.270409
Spine -72.717417 -1.179199 27.080068
Head -13.976687 29.949189 42.152982
LeftShoulder -23.870422 32.815627 34.896867
LeftArm 90.809971 -68.316558 -105.751826
LeftForeArm 10.381347 0.000000 95.085340
LeftHand -62.845374 0.000000 7.938791
LeftHandThumb1 -26.253704 0.000000 33.147579
RightShoulder -44.275602 -38.667521 4.607431
RightArm 56.807027 66.774629 116.074447
RightForeArm 80.518566 -0.000000 16.655474
RightHand 18.809441 0.000000 15.700814
RightHandThumb1 -24.326973 -0.000000 -32.862282
LeftUpLeg -100.754228 42.490810 -4.963851
LeftLeg -7.840527 -0.000000 0.000000
LeftFoot -0.218571 -3.306269 3.295094
LeftToeBase 0.729056 -0.000000 -0.000000
RightUpLeg -3.927468 -20.761794 -39.114429
RightLeg 80.884387 -0.000000 -0.000000
RightFoot 34.690303 2.747485 -2.443509
RightToeBase 27.107364 -0.000000 -0.000000
